<svg width="34" height="34" viewBox="0 0 34 34" fill="none" xmlns="http://www.w3.org/2000/svg">
<circle cx="17" cy="17" r="17" fill="url(#paint0_linear_85_2902)"/>
<path d="M20.458 20.5781V22H13.7178V20.7832L16.9512 17.29C17.2884 16.9072 17.555 16.5745 17.751 16.292C17.9469 16.0094 18.0859 15.7542 18.168 15.5264C18.2546 15.2939 18.2979 15.0729 18.2979 14.8633C18.2979 14.5579 18.2432 14.2913 18.1338 14.0635C18.0244 13.8311 17.8649 13.651 17.6553 13.5234C17.4502 13.3958 17.1973 13.332 16.8965 13.332C16.5638 13.332 16.279 13.4095 16.042 13.5645C15.8096 13.7148 15.6318 13.9245 15.5088 14.1934C15.3903 14.4622 15.3311 14.7699 15.3311 15.1162H13.5195C13.5195 14.5283 13.6562 13.9928 13.9297 13.5098C14.2031 13.0221 14.5951 12.6325 15.1055 12.3408C15.6159 12.0492 16.222 11.9033 16.9238 11.9033C17.6074 11.9033 18.1862 12.0173 18.6602 12.2451C19.1341 12.4684 19.4941 12.7874 19.7402 13.2021C19.9863 13.6169 20.1094 14.1113 20.1094 14.6855C20.1094 15.0046 20.057 15.319 19.9521 15.6289C19.8473 15.9388 19.6992 16.2464 19.5078 16.5518C19.321 16.8525 19.0977 17.1579 18.8379 17.4678C18.5781 17.7777 18.2887 18.0944 17.9697 18.418L16.0283 20.5781H20.458Z" fill="#B5B3BC"/>
<defs>
<linearGradient id="paint0_linear_85_2902" x1="0" y1="0" x2="34" y2="34" gradientUnits="userSpaceOnUse">
<stop stop-color="#02C3BD"/>
<stop offset="1" stop-color="#4062BB"/>
</linearGradient>
</defs>
</svg>
