<svg width="34" height="34" viewBox="0 0 34 34" fill="none" xmlns="http://www.w3.org/2000/svg">
<circle cx="17" cy="17" r="17" fill="url(#paint0_linear_85_2909)"/>
<path d="M15.6934 16.2236H16.7119C17.0719 16.2236 17.3682 16.1621 17.6006 16.0391C17.8376 15.9115 18.013 15.7383 18.127 15.5195C18.2454 15.2962 18.3047 15.0387 18.3047 14.7471C18.3047 14.46 18.2523 14.2116 18.1475 14.002C18.0426 13.7878 17.8831 13.6237 17.6689 13.5098C17.4593 13.3913 17.1904 13.332 16.8623 13.332C16.598 13.332 16.3542 13.3844 16.1309 13.4893C15.9121 13.5941 15.7367 13.7445 15.6045 13.9404C15.4769 14.1318 15.4131 14.362 15.4131 14.6309H13.6016C13.6016 14.0931 13.7428 13.6214 14.0254 13.2158C14.3125 12.8057 14.6999 12.4844 15.1875 12.252C15.6751 12.0195 16.2197 11.9033 16.8213 11.9033C17.4775 11.9033 18.0518 12.0127 18.5439 12.2314C19.0407 12.4456 19.4258 12.7624 19.6992 13.1816C19.9772 13.6009 20.1162 14.1204 20.1162 14.7402C20.1162 15.0365 20.0456 15.3327 19.9043 15.6289C19.7676 15.9206 19.5648 16.1849 19.2959 16.4219C19.0316 16.6543 18.7057 16.8434 18.3184 16.9893C17.9355 17.1305 17.4958 17.2012 16.999 17.2012H15.6934V16.2236ZM15.6934 17.6182V16.6543H16.999C17.5596 16.6543 18.0449 16.7204 18.4551 16.8525C18.8698 16.9801 19.2116 17.1624 19.4805 17.3994C19.7493 17.6318 19.9476 17.903 20.0752 18.2129C20.2074 18.5228 20.2734 18.8555 20.2734 19.2109C20.2734 19.6758 20.1868 20.0905 20.0137 20.4551C19.8405 20.8151 19.5967 21.1204 19.2822 21.3711C18.9723 21.6217 18.6077 21.8132 18.1885 21.9453C17.7692 22.0729 17.3158 22.1367 16.8281 22.1367C16.4043 22.1367 15.9919 22.0798 15.5908 21.9658C15.1943 21.8473 14.8366 21.6719 14.5176 21.4395C14.1986 21.2025 13.9456 20.9062 13.7588 20.5508C13.5719 20.1908 13.4785 19.7738 13.4785 19.2998H15.29C15.29 19.5732 15.3561 19.8171 15.4883 20.0312C15.625 20.2454 15.8118 20.4141 16.0488 20.5371C16.2904 20.6556 16.5615 20.7148 16.8623 20.7148C17.195 20.7148 17.4798 20.6556 17.7168 20.5371C17.9583 20.4141 18.1429 20.2409 18.2705 20.0176C18.3981 19.7897 18.4619 19.5186 18.4619 19.2041C18.4619 18.8304 18.3913 18.5273 18.25 18.2949C18.1087 18.0625 17.9059 17.8916 17.6416 17.7822C17.3818 17.6729 17.0719 17.6182 16.7119 17.6182H15.6934Z" fill="#B5B3BC"/>
<defs>
<linearGradient id="paint0_linear_85_2909" x1="0" y1="0" x2="34" y2="34" gradientUnits="userSpaceOnUse">
<stop stop-color="#02C3BD"/>
<stop offset="1" stop-color="#4062BB"/>
</linearGradient>
</defs>
</svg>
