<svg width="147" height="34" viewBox="0 0 147 34" fill="none" xmlns="http://www.w3.org/2000/svg">
<path d="M4.39568 30.2951L0.5 28.3887V32.1285C0.5 32.6808 0.947715 33.1285 1.5 33.1285H145.5C146.052 33.1285 146.5 32.6808 146.5 32.1285V17.5266L144.205 21.57C144.094 21.7653 143.921 21.9176 143.713 22.0023L140.456 23.3307C139.97 23.5286 139.415 23.3183 139.182 22.8486L135.924 16.2724C135.755 15.9318 135.408 15.7163 135.028 15.7163H132.347C131.955 15.7163 131.599 15.4869 131.436 15.1298L129.795 11.5147C129.517 10.9031 128.727 10.7338 128.223 11.1778L127.054 12.2081C126.871 12.3689 126.636 12.4577 126.393 12.4577H119.167C118.978 12.4577 118.794 12.4044 118.634 12.3041L116.206 10.7761C115.765 10.4988 115.185 10.6061 114.873 11.0229L110.998 16.1949C110.546 16.7985 109.613 16.7032 109.292 16.0204L105.227 7.36565C105.124 7.14705 104.946 6.97301 104.725 6.87566L100.387 4.96504C100.222 4.8925 100.041 4.86575 99.8622 4.88761L94.7182 5.51695C94.4026 5.55556 94.0874 5.44178 93.8693 5.21046L90.4975 1.63537C90.1054 1.21964 89.4453 1.21644 89.0492 1.62835L84.624 6.23018C84.2139 6.65661 83.5253 6.63577 83.1418 6.18532L82.1767 5.05178C81.7695 4.57363 81.0276 4.58467 80.6349 5.07473L77.3383 9.18853C76.9083 9.72518 76.0774 9.67766 75.7114 9.09548L71.466 2.34332C71.0555 1.6904 70.0916 1.72833 69.7336 2.41149L65.8889 9.74936C65.7163 10.0788 65.3751 10.2853 65.0031 10.2853H62.7449C62.3812 10.2853 62.0461 10.4828 61.87 10.801L55.8495 21.6794C55.7795 21.8059 55.6829 21.9158 55.5663 22.0013L48.4053 27.2579C48.0716 27.5029 47.6215 27.5169 47.2732 27.2932L44.2577 25.3564C44.0323 25.2116 43.7583 25.1633 43.497 25.2223L38.0952 26.4424C37.7262 26.5257 37.4358 26.8102 37.3449 27.1774L36.6949 29.8015C36.5844 30.2477 36.1839 30.5611 35.7242 30.5611H31.4704C31.22 30.5611 30.9787 30.4672 30.7943 30.2979L25.806 25.7209C25.4373 25.3825 24.8751 25.3689 24.4904 25.6889L18.3243 30.8187C17.9902 31.0967 17.5147 31.127 17.148 30.8937L10.942 26.9455C10.594 26.7242 10.1459 26.7391 9.81347 26.9831L5.42698 30.203C5.1271 30.4232 4.72981 30.4587 4.39568 30.2951Z" fill="url(#paint0_linear_939_7114)"/>
<path d="M0.5 28.3887L4.39568 30.2951C4.72981 30.4587 5.1271 30.4232 5.42698 30.203L9.81347 26.9831C10.1459 26.7391 10.594 26.7242 10.942 26.9455L17.148 30.8937C17.5147 31.127 17.9902 31.0967 18.3243 30.8187L24.4904 25.6889C24.8751 25.3689 25.4373 25.3825 25.806 25.7209L30.7943 30.2979C30.9787 30.4672 31.22 30.5611 31.4703 30.5611H35.7242C36.1839 30.5611 36.5844 30.2477 36.6949 29.8015L37.3449 27.1774C37.4358 26.8102 37.7262 26.5257 38.0952 26.4424L43.497 25.2223C43.7583 25.1633 44.0323 25.2116 44.2577 25.3564L47.2731 27.2932C47.6215 27.5169 48.0716 27.5029 48.4053 27.2579L55.5663 22.0013C55.6829 21.9158 55.7795 21.8059 55.8495 21.6794L61.87 10.801C62.0461 10.4828 62.3811 10.2853 62.7449 10.2853H65.0031C65.3751 10.2853 65.7163 10.0788 65.8889 9.74936L69.7336 2.41149C70.0916 1.72833 71.0554 1.6904 71.466 2.34332L75.7114 9.09548C76.0774 9.67766 76.9083 9.72518 77.3383 9.18853L80.6349 5.07473C81.0276 4.58467 81.7695 4.57363 82.1767 5.05178L83.1418 6.18532C83.5253 6.63577 84.2139 6.65661 84.624 6.23018L89.0492 1.62835C89.4453 1.21644 90.1054 1.21964 90.4975 1.63537L93.8692 5.21046C94.0874 5.44178 94.4026 5.55556 94.7182 5.51695L99.8622 4.88761C100.041 4.86575 100.222 4.8925 100.387 4.96504L104.725 6.87566C104.946 6.97301 105.124 7.14705 105.227 7.36565L109.292 16.0204C109.613 16.7032 110.546 16.7985 110.998 16.1949L114.873 11.0229C115.185 10.6061 115.765 10.4988 116.206 10.7761L118.634 12.3041C118.794 12.4044 118.978 12.4577 119.167 12.4577H126.393C126.636 12.4577 126.871 12.3689 127.054 12.2081L128.223 11.1778C128.727 10.7338 129.517 10.9031 129.795 11.5147L131.436 15.1298C131.599 15.4869 131.955 15.7163 132.347 15.7163H135.028C135.408 15.7163 135.755 15.9318 135.924 16.2724L139.182 22.8486C139.414 23.3183 139.97 23.5286 140.456 23.3307L143.622 22.0392C143.884 21.9324 144.089 21.7197 144.185 21.4537L145.631 17.4608" stroke="#02C3BD" stroke-linecap="round"/>
<defs>
<linearGradient id="paint0_linear_939_7114" x1="73.5" y1="0.87146" x2="73.5" y2="33.1285" gradientUnits="userSpaceOnUse">
<stop stop-color="#02C3BD" stop-opacity="0.4"/>
<stop offset="1" stop-color="#02C3BD" stop-opacity="0"/>
</linearGradient>
</defs>
</svg>
