<svg width="116" height="116" viewBox="0 0 116 116" fill="none" xmlns="http://www.w3.org/2000/svg">
<g clip-path="url(#clip0_742_10796)">
<path d="M11.7969 87.0451V106.17L33.424 116V82.5763L23.5935 92.4068L11.7969 87.0451Z" fill="url(#paint0_linear_742_10796)"/>
<path d="M55.0509 87.0451V86.5084V87.0451L64.8815 82.5762L55.0509 72.7457L33.4238 82.5762L43.2543 92.4067L55.0509 87.0451Z" fill="url(#paint1_linear_742_10796)"/>
<path d="M55.0509 106.17V87.0451L43.2543 92.4068L33.4238 82.5763V116L55.0509 106.17Z" fill="url(#paint2_linear_742_10796)"/>
<path d="M11.7963 87.0451V86.5084V87.0451L23.5929 92.4067L33.4234 82.5762L11.7963 72.7457L1.96582 82.5762L11.7963 87.0451Z" fill="url(#paint3_linear_742_10796)"/>
<path d="M96.0445 71.4507C95.0413 75.8514 91.5804 79.3123 87.1797 80.3155C86.862 80.3875 86.862 80.8329 87.1797 80.9049C91.5804 81.9081 95.0413 85.369 96.0445 89.7696C96.1165 90.0874 96.5619 90.0874 96.6339 89.7696C97.6371 85.369 101.098 81.9081 105.499 80.9049C105.816 80.8329 105.816 80.3875 105.499 80.3155C101.098 79.3123 97.6371 75.8514 96.6339 71.4507C96.5619 71.133 96.1165 71.133 96.0445 71.4507Z" fill="#31CCCC"/>
<path d="M93.1748 11.6354L87.2045 27.417L70.3506 28.2186L83.5152 38.7739L79.0694 55.0509L93.1748 45.7926L107.282 55.0509L102.836 38.7739L116 28.2186L99.1461 27.417L93.1748 11.6354Z" fill="#FFAF1C"/>
<path d="M57.0172 66.8474H53.085C53.085 60.3424 58.3765 55.0508 64.8816 55.0508H72.746V58.983H64.8816C60.5442 58.983 57.0172 62.511 57.0172 66.8474Z" fill="#31CCCC"/>
<path d="M17.6949 66.8474H13.7627C13.7627 38.6605 36.6935 15.7288 64.8813 15.7288H84.5424V19.661H64.8813C38.8631 19.661 17.6949 40.8292 17.6949 66.8474Z" fill="#31CCCC"/>
<path d="M37.356 74.7118H33.4238V66.8474C33.4238 49.5019 47.536 35.3898 64.8815 35.3898H72.7459V39.322H64.8815C49.7037 39.322 37.356 51.6696 37.356 66.8474V74.7118Z" fill="#31CCCC"/>
<path d="M27.525 72.7458H23.5928V66.8475C23.5928 44.0808 42.1152 25.5593 64.8809 25.5593V29.4915C44.2829 29.4915 27.525 46.2495 27.525 66.8475V72.7458Z" fill="#31CCCC"/>
<path d="M47.1861 70.7797H43.2539V66.8475C43.2539 54.9222 52.9558 45.2203 64.881 45.2203H74.7115V49.1525H64.881C55.1235 49.1525 47.1861 57.0909 47.1861 66.8475V70.7797Z" fill="#31CCCC"/>
<path d="M9.83008 0H13.7623V7.86441H9.83008V0Z" fill="#3F4F4F"/>
<path d="M9.83008 15.7288H13.7623V23.5932H9.83008V15.7288Z" fill="#3F4F4F"/>
<path d="M15.7285 9.83057H23.5929V13.7628H15.7285V9.83057Z" fill="#3F4F4F"/>
<path d="M0 9.83057H7.86441V13.7628H0V9.83057Z" fill="#3F4F4F"/>
</g>
<defs>
<linearGradient id="paint0_linear_742_10796" x1="11.7969" y1="82.5763" x2="42.2858" y2="102.304" gradientUnits="userSpaceOnUse">
<stop stop-color="#02C3BD"/>
<stop offset="1" stop-color="#4062BB"/>
</linearGradient>
<linearGradient id="paint1_linear_742_10796" x1="33.4238" y1="72.7457" x2="51.0967" y2="101.022" gradientUnits="userSpaceOnUse">
<stop stop-color="#02C3BD"/>
<stop offset="1" stop-color="#4062BB"/>
</linearGradient>
<linearGradient id="paint2_linear_742_10796" x1="33.4238" y1="116" x2="63.9128" y2="96.2719" gradientUnits="userSpaceOnUse">
<stop stop-color="#02C3BD"/>
<stop offset="1" stop-color="#5899FF"/>
<stop offset="1" stop-color="#50BEBB"/>
</linearGradient>
<linearGradient id="paint3_linear_742_10796" x1="1.96582" y1="72.7457" x2="19.6386" y2="101.022" gradientUnits="userSpaceOnUse">
<stop stop-color="#02C3BD"/>
<stop offset="1" stop-color="#4062BB"/>
</linearGradient>
<clipPath id="clip0_742_10796">
<rect width="116" height="116" fill="white"/>
</clipPath>
</defs>
</svg>
