<svg width="16" height="16" viewBox="0 0 16 16" fill="none" xmlns="http://www.w3.org/2000/svg">
<path d="M12.6663 2.66668H11.333V2.00001C11.333 1.8232 11.2628 1.65363 11.1377 1.52861C11.0127 1.40358 10.8432 1.33334 10.6663 1.33334C10.4895 1.33334 10.32 1.40358 10.1949 1.52861C10.0699 1.65363 9.99967 1.8232 9.99967 2.00001V2.66668H5.99967V2.00001C5.99967 1.8232 5.92944 1.65363 5.80441 1.52861C5.67939 1.40358 5.50982 1.33334 5.33301 1.33334C5.1562 1.33334 4.98663 1.40358 4.8616 1.52861C4.73658 1.65363 4.66634 1.8232 4.66634 2.00001V2.66668H3.33301C2.80257 2.66668 2.29387 2.87739 1.91879 3.25246C1.54372 3.62754 1.33301 4.13624 1.33301 4.66668V12.6667C1.33301 13.1971 1.54372 13.7058 1.91879 14.0809C2.29387 14.456 2.80257 14.6667 3.33301 14.6667H12.6663C13.1968 14.6667 13.7055 14.456 14.0806 14.0809C14.4556 13.7058 14.6663 13.1971 14.6663 12.6667V4.66668C14.6663 4.13624 14.4556 3.62754 14.0806 3.25246C13.7055 2.87739 13.1968 2.66668 12.6663 2.66668V2.66668ZM13.333 12.6667C13.333 12.8435 13.2628 13.0131 13.1377 13.1381C13.0127 13.2631 12.8432 13.3333 12.6663 13.3333H3.33301C3.1562 13.3333 2.98663 13.2631 2.8616 13.1381C2.73658 13.0131 2.66634 12.8435 2.66634 12.6667V8.00001H13.333V12.6667ZM13.333 6.66668H2.66634V4.66668C2.66634 4.48987 2.73658 4.3203 2.8616 4.19527C2.98663 4.07025 3.1562 4.00001 3.33301 4.00001H4.66634V4.66668C4.66634 4.84349 4.73658 5.01306 4.8616 5.13808C4.98663 5.26311 5.1562 5.33334 5.33301 5.33334C5.50982 5.33334 5.67939 5.26311 5.80441 5.13808C5.92944 5.01306 5.99967 4.84349 5.99967 4.66668V4.00001H9.99967V4.66668C9.99967 4.84349 10.0699 5.01306 10.1949 5.13808C10.32 5.26311 10.4895 5.33334 10.6663 5.33334C10.8432 5.33334 11.0127 5.26311 11.1377 5.13808C11.2628 5.01306 11.333 4.84349 11.333 4.66668V4.00001H12.6663C12.8432 4.00001 13.0127 4.07025 13.1377 4.19527C13.2628 4.3203 13.333 4.48987 13.333 4.66668V6.66668Z" fill="#F2F0FF"/>
</svg>
